<?xml version="1.0" encoding="utf-8"?>
<!-- Generator: Adobe Illustrator 16.0.4, SVG Export Plug-In . SVG Version: 6.00 Build 0)  -->
<!DOCTYPE svg PUBLIC "-//W3C//DTD SVG 1.1//EN" "http://www.w3.org/Graphics/SVG/1.1/DTD/svg11.dtd">
<svg version="1.1" xmlns="http://www.w3.org/2000/svg" xmlns:xlink="http://www.w3.org/1999/xlink" x="0px" y="0px"
	 width="283.46px" height="283.46px" viewBox="0 0 283.46 283.46" enable-background="new 0 0 283.46 283.46" xml:space="preserve">
<g id="图层_2">
</g>
<g id="图层_1">
	<g>
		<g>
			<path fill="#F5BC00" d="M99.429,104.421c-22.077,0-39.977,17.9-39.977,39.983c0,22.076,17.899,39.977,39.977,39.977
				c22.085,0,39.985-17.9,39.985-39.977C139.414,122.322,121.514,104.421,99.429,104.421z M84.542,163.662h-5.916
				c0-3.27,2.653-5.916,5.916-5.916V163.662z M96.438,163.662h-5.907c0-3.27,2.644-5.916,5.907-5.916V163.662z M102.423,163.662
				v-5.916c3.266,0,5.914,2.646,5.914,5.916H102.423z M108.382,151.701v0.025H90.266l-0.001-0.035
				c-3.165-0.113-5.693-2.709-5.693-5.9h-0.029v-6.005h0.029c0-3.201,2.733-5.796,5.911-5.905l0.001-0.033h5.954v-5.965v-5.959
				h0.026v-5.912c3.268,0,5.91,2.647,5.91,5.912v0.023h5.915c0,3.265-2.649,5.914-5.915,5.914v0.021h0.026v5.965h5.982v0.022
				c3.266,0,5.915,2.646,5.915,5.916h0.023v6.005h-0.023C114.297,149.057,111.647,151.701,108.382,151.701z M114.32,163.662v-5.916
				c3.266,0,5.913,2.646,5.913,5.916H114.32z"/>
			<rect x="90.501" y="139.809" fill="#F5BC00" width="17.858" height="5.957"/>
		</g>
		<g>
			<path fill="#FFFFFF" d="M158.253,161.795c0-2.543,1.407-4.064,3.435-4.064c2.023,0,3.438,1.521,3.438,4.064
				c0,2.541-1.415,4.119-3.438,4.119C159.66,165.914,158.253,164.336,158.253,161.795z M163.854,161.795
				c0-1.857-0.861-2.984-2.166-2.984c-1.312,0-2.155,1.127-2.155,2.984c0,1.852,0.843,3.035,2.155,3.035
				C162.992,164.83,163.854,163.646,163.854,161.795z"/>
			<path fill="#FFFFFF" d="M168.079,158.916h-2.318v-1.035h5.892v1.035h-2.332v6.857h-1.241V158.916z"/>
			<path fill="#FFFFFF" d="M172.285,161.846c0-2.572,1.565-4.115,3.562-4.115c0.984,0,1.758,0.467,2.242,0.994l-0.68,0.793
				c-0.402-0.416-0.898-0.707-1.54-0.707c-1.367,0-2.311,1.139-2.311,2.99c0,1.879,0.885,3.029,2.272,3.029
				c0.729,0,1.283-0.326,1.755-0.838l0.666,0.783c-0.636,0.727-1.44,1.139-2.461,1.139
				C173.81,165.914,172.285,164.43,172.285,161.846z"/>
		</g>
		<g>
			<path fill-rule="evenodd" clip-rule="evenodd" fill="#FFFFFF" d="M196.315,162.154c-0.436,0-0.834-0.014-1.227,0.008
				c-0.08,0.006-0.167,0.115-0.217,0.191c-0.68,1.199-1.706,1.953-2.958,2.441c-0.084,0.031-0.169,0.055-0.255,0.078
				c-0.18,0.053-0.392,0.053-0.42-0.16c-0.021-0.109,0.137-0.262,0.252-0.355c0.097-0.086,0.242-0.109,0.369-0.164
				c0.877-0.367,1.668-0.844,2.242-1.625c0.087-0.115,0.157-0.24,0.276-0.414c-0.48,0-0.912-0.006-1.339,0.008
				c-0.084,0.002-0.165,0.1-0.237,0.156c-0.49,0.348-0.973,0.715-1.48,1.035c-0.351,0.223-0.604,0.199-0.672-0.008
				c-0.089-0.326,0.206-0.404,0.411-0.504c0.829-0.381,1.53-0.922,2.058-1.676c0.034-0.043,0.061-0.09,0.119-0.188
				c-0.271,0-0.507,0.01-0.729,0c-0.486-0.008-0.771-0.283-0.776-0.76c-0.013-0.625-0.013-1.25,0-1.877
				c0.006-0.461,0.29-0.746,0.755-0.746c1.641-0.01,3.271-0.01,4.916,0c0.484,0,0.756,0.285,0.756,0.771
				c0.01,0.604,0.01,1.209,0,1.812c0,0.52-0.271,0.795-0.793,0.799c-1.016,0.01-2.024,0.02-3.04-0.004
				c-0.321-0.004-0.544,0.062-0.68,0.359c-0.04,0.088-0.107,0.158-0.208,0.295c0.137,0,0.242,0,0.336,0
				c1.339,0,2.675-0.002,4.009,0.004c0.164,0,0.333,0.006,0.496,0.047c0.338,0.078,0.546,0.293,0.514,0.641
				c-0.059,0.832-0.139,1.668-0.271,2.494c-0.092,0.559-0.521,0.846-1.069,0.936c-0.517,0.08-1.013,0.023-1.487-0.182
				c-0.166-0.068-0.311-0.176-0.238-0.373c0.072-0.195,0.244-0.184,0.424-0.148c0.345,0.082,0.695,0.184,1.054,0.197
				c0.477,0.016,0.766-0.213,0.839-0.684c0.107-0.652,0.169-1.314,0.235-1.975c0.03-0.281-0.146-0.412-0.402-0.424
				c-0.273-0.018-0.546-0.021-0.822,0c-0.075,0.006-0.182,0.1-0.216,0.18c-0.59,1.457-1.674,2.441-3.045,3.133
				c-0.188,0.094-0.393,0.188-0.6,0.219c-0.125,0.018-0.263-0.088-0.399-0.139c0.068-0.117,0.11-0.266,0.208-0.344
				c0.115-0.09,0.276-0.123,0.421-0.191c1.199-0.557,2.195-1.332,2.771-2.566C196.23,162.365,196.264,162.277,196.315,162.154z
				 M192.253,159.531c0,0.143,0,0.26,0,0.375c0.006,0.428,0.127,0.549,0.569,0.549c0.362,0.002,0.729,0,1.106,0
				c1.07,0,2.14,0.004,3.21,0c0.361,0,0.494-0.135,0.502-0.498c0.008-0.139,0-0.279,0-0.426
				C195.832,159.531,194.062,159.531,192.253,159.531z M197.641,158.984c0-0.125,0-0.219,0-0.314
				c-0.008-0.432-0.121-0.553-0.562-0.557c-0.201,0-0.415,0-0.612,0c-1.228,0-2.455,0-3.683,0c-0.396,0.004-0.517,0.133-0.531,0.523
				c0,0.113,0,0.227,0,0.348C194.062,158.984,195.832,158.984,197.641,158.984z"/>
			<path fill-rule="evenodd" clip-rule="evenodd" fill="#FFFFFF" d="M203.95,161.92c0-1.25,0-2.445,0-3.686
				c-0.103,0-0.209,0-0.308,0c-0.919,0-1.837,0-2.748,0c-0.075,0-0.158,0.025-0.2-0.006c-0.112-0.072-0.2-0.17-0.298-0.26
				c0.098-0.086,0.186-0.252,0.285-0.252c2.352-0.012,4.703-0.012,7.05,0c0.109,0,0.295,0.164,0.305,0.264
				c0.021,0.199-0.167,0.254-0.349,0.254c-0.935,0-1.873,0-2.805,0c-0.119,0-0.23,0-0.375,0c0,1.225,0,2.43,0,3.686
				c0.104,0,0.198,0,0.31,0c1.079,0,2.162,0,3.244,0c0.084,0,0.188-0.018,0.255,0.02c0.091,0.049,0.193,0.15,0.188,0.223
				c-0.009,0.09-0.098,0.207-0.182,0.26c-0.073,0.043-0.188,0.023-0.287,0.023c-1.172,0-2.338,0-3.552,0c0,0.115,0,0.217,0,0.32
				c0,0.889,0,1.771,0.006,2.662c0,0.195-0.006,0.398-0.262,0.406c-0.254,0.004-0.271-0.197-0.271-0.395c0-0.984,0-1.971,0-2.994
				c-0.113,0-0.216,0-0.321,0c-1.075,0-2.144,0-3.215,0c-0.091,0-0.193,0.025-0.262-0.014c-0.094-0.062-0.216-0.17-0.216-0.252
				c0-0.088,0.131-0.189,0.225-0.25c0.055-0.035,0.15-0.01,0.229-0.01c1.076,0,2.148,0,3.216,0
				C203.721,161.92,203.824,161.92,203.95,161.92z"/>
			<path fill-rule="evenodd" clip-rule="evenodd" fill="#FFFFFF" d="M213.588,165.432c-0.779,0-1.559,0.004-2.338,0
				c-0.588-0.004-0.853-0.27-0.853-0.863c0-0.721,0-1.443,0-2.164c0.004-0.557,0.271-0.834,0.821-0.836
				c1.577-0.002,3.157-0.002,4.733,0c0.558,0.002,0.815,0.273,0.821,0.836c0.008,0.729,0.008,1.457,0,2.189
				c-0.006,0.572-0.271,0.834-0.853,0.838C215.147,165.436,214.368,165.432,213.588,165.432z M213.553,164.902
				c0.73,0,1.462,0.002,2.193,0c0.362-0.004,0.496-0.137,0.504-0.496c0-0.604,0-1.207,0-1.812c-0.008-0.359-0.135-0.494-0.504-0.498
				c-1.438-0.004-2.882-0.004-4.321,0c-0.362,0.004-0.498,0.139-0.5,0.498c0,0.596,0,1.188,0,1.785c0,0.396,0.13,0.52,0.528,0.523
				C212.155,164.904,212.856,164.902,213.553,164.902z"/>
			<path fill-rule="evenodd" clip-rule="evenodd" fill="#FFFFFF" d="M185.07,163.328c-0.403-0.562-0.796-1.121-1.186-1.68
				c-0.088-0.121-0.166-0.271-0.2-0.416c-0.018-0.102,0.039-0.268,0.112-0.311c0.077-0.045,0.244,0,0.322,0.062
				c0.104,0.08,0.155,0.223,0.231,0.332c0.362,0.525,0.729,1.053,1.084,1.58c0.042,0.006,0.085,0.01,0.127,0.01
				c0.319-0.457,0.647-0.91,0.968-1.369c0.113-0.166,0.186-0.371,0.321-0.52c0.064-0.076,0.259-0.137,0.331-0.096
				c0.082,0.049,0.115,0.213,0.125,0.334c0.016,0.076-0.047,0.166-0.096,0.236c-0.403,0.611-0.809,1.219-1.237,1.854
				c0.073,0.062,0.179,0.166,0.288,0.252c0.92,0.711,1.954,1.203,3.06,1.539c0.126,0.039,0.273,0.072,0.375,0.152
				c0.078,0.066,0.159,0.225,0.132,0.311c-0.021,0.08-0.186,0.174-0.276,0.172c-0.214-0.018-0.425-0.076-0.624-0.148
				c-1.233-0.434-2.369-1.037-3.366-1.918c-0.081,0.062-0.144,0.109-0.213,0.166c-0.967,0.842-2.093,1.416-3.286,1.848
				c-0.13,0.049-0.269,0.111-0.396,0.102c-0.134-0.01-0.327-0.062-0.38-0.158c-0.104-0.182,0.061-0.307,0.218-0.375
				c0.143-0.057,0.295-0.098,0.447-0.148c1.112-0.377,2.139-0.912,3.021-1.709C185.017,163.389,185.06,163.342,185.07,163.328z"/>
			<path fill-rule="evenodd" clip-rule="evenodd" fill="#FFFFFF" d="M210.874,160.43c1.782-0.08,3.573-0.16,5.355-0.24
				c0.013-0.029,0.024-0.061,0.03-0.092c-0.361-0.381-0.729-0.768-1.095-1.154c-0.161-0.17-0.335-0.33-0.471-0.521
				c-0.055-0.076-0.055-0.291-0.007-0.32c0.087-0.061,0.235-0.039,0.358-0.025c0.06,0.006,0.119,0.07,0.161,0.121
				c0.728,0.805,1.445,1.607,2.167,2.42c0.085,0.098,0.161,0.23,0.187,0.354c0.022,0.096-0.012,0.254-0.081,0.303
				c-0.063,0.047-0.234,0.027-0.308-0.025c-0.127-0.111-0.241-0.258-0.325-0.404c-0.115-0.186-0.255-0.225-0.458-0.213
				c-1.402,0.1-2.805,0.197-4.204,0.262c-0.675,0.029-1.347,0-2.016-0.033c-0.143-0.006-0.273-0.145-0.407-0.223
				c0.092-0.137,0.151-0.316,0.283-0.398c1.024-0.668,1.874-1.52,2.602-2.498c0.082-0.113,0.162-0.256,0.277-0.328
				c0.096-0.062,0.26-0.088,0.357-0.041c0.052,0.025,0.089,0.236,0.047,0.32c-0.089,0.203-0.211,0.404-0.356,0.564
				c-0.624,0.645-1.264,1.273-1.901,1.906c-0.065,0.064-0.144,0.125-0.215,0.184C210.861,160.373,210.868,160.4,210.874,160.43z"/>
			<path fill-rule="evenodd" clip-rule="evenodd" fill="#FFFFFF" d="M185.396,158.408c-0.106-0.271-0.204-0.502-0.293-0.734
				c-0.062-0.16-0.093-0.344,0.1-0.391c0.109-0.027,0.316,0.051,0.381,0.148c0.147,0.227,0.254,0.486,0.333,0.744
				c0.049,0.186,0.133,0.24,0.321,0.234c1.016-0.008,2.025-0.002,3.032-0.002c0.093,0,0.203-0.02,0.263,0.021
				c0.086,0.057,0.186,0.162,0.186,0.244c0,0.084-0.107,0.184-0.192,0.242c-0.053,0.043-0.145,0.02-0.231,0.02
				c-2.487,0-4.986,0-7.478,0c-0.059,0-0.131,0.023-0.174-0.006c-0.096-0.072-0.236-0.152-0.259-0.256
				c-0.037-0.166,0.098-0.254,0.271-0.264c0.072-0.004,0.152-0.002,0.229-0.002c1.063,0,2.13,0,3.187,0
				C185.167,158.408,185.259,158.408,185.396,158.408z"/>
			<path fill-rule="evenodd" clip-rule="evenodd" fill="#FFFFFF" d="M184.466,159.553c-0.042,0.076-0.084,0.209-0.166,0.314
				c-0.606,0.834-1.345,1.545-2.216,2.096c-0.065,0.035-0.144,0.098-0.212,0.094c-0.107-0.004-0.258-0.02-0.324-0.09
				c-0.048-0.055-0.015-0.215,0.028-0.307c0.044-0.092,0.145-0.158,0.231-0.213c0.785-0.535,1.448-1.186,2.031-1.922
				c0.079-0.098,0.167-0.195,0.271-0.256C184.274,159.168,184.474,159.311,184.466,159.553z"/>
			<path fill-rule="evenodd" clip-rule="evenodd" fill="#FFFFFF" d="M189.328,161.707c0.006,0.256-0.193,0.379-0.365,0.277
				c-0.071-0.045-0.137-0.105-0.195-0.166c-0.73-0.666-1.445-1.338-2.168-2c-0.041-0.039-0.107-0.076-0.121-0.129
				c-0.028-0.09-0.059-0.23-0.018-0.279c0.062-0.066,0.212-0.111,0.298-0.084c0.138,0.035,0.264,0.119,0.374,0.217
				c0.653,0.596,1.3,1.193,1.939,1.809C189.186,161.459,189.262,161.615,189.328,161.707z"/>
			<path fill-rule="evenodd" clip-rule="evenodd" fill="#FFFFFF" d="M207.429,159.115c-0.032,0.125-0.036,0.215-0.08,0.295
				c-0.32,0.605-0.638,1.213-0.99,1.803c-0.109,0.168-0.284,0.426-0.541,0.229c-0.24-0.186-0.023-0.381,0.073-0.561
				c0.311-0.549,0.617-1.094,0.928-1.641c0.054-0.084,0.084-0.189,0.155-0.248c0.074-0.053,0.2-0.107,0.271-0.082
				C207.33,158.934,207.381,159.051,207.429,159.115z"/>
			<path fill-rule="evenodd" clip-rule="evenodd" fill="#FFFFFF" d="M202.693,161.258c-0.049,0.07-0.091,0.193-0.169,0.221
				c-0.08,0.023-0.217-0.016-0.277-0.074c-0.091-0.088-0.15-0.219-0.22-0.338c-0.288-0.523-0.577-1.051-0.875-1.574
				c-0.034-0.076-0.113-0.148-0.122-0.227c-0.013-0.105-0.013-0.268,0.046-0.307c0.076-0.049,0.228-0.035,0.332,0
				c0.084,0.025,0.156,0.117,0.202,0.197c0.334,0.592,0.667,1.186,0.986,1.785C202.645,161.021,202.658,161.127,202.693,161.258z"/>
		</g>
		<g>
			<path fill-rule="evenodd" clip-rule="evenodd" fill="#FFFFFF" d="M169.992,126.742c3.558,0,6.978,0,10.405,0
				c0.247,0,0.545-0.076,0.738,0.029c0.277,0.149,0.664,0.438,0.664,0.663c0,0.259-0.332,0.592-0.604,0.757
				c-0.207,0.123-0.54,0.051-0.815,0.051c-3.424,0.005-6.845,0.005-10.319,0.005c0,1.051,0,2.062,0,3.167c0.298,0,0.594,0,0.893,0
				c2.249,0,4.505-0.008,6.759,0.012c1.495,0.014,2.279,0.789,2.304,2.259c0.013,1.497,0.021,3.006-0.005,4.507
				c-0.02,1.424-0.812,2.231-2.237,2.237c-4.98,0.014-9.965,0.014-14.946,0c-1.335-0.006-2.139-0.799-2.17-2.128
				c-0.029-1.588-0.029-3.173,0.004-4.757c0.027-1.323,0.839-2.099,2.183-2.118c1.856-0.02,3.711-0.004,5.648-0.004
				c0-2.108,0-4.131,0-6.156c0-0.25,0-0.501,0.006-0.749c0.018-0.504,0.286-0.861,0.775-0.741c0.278,0.07,0.646,0.446,0.688,0.726
				C170.062,125.205,169.992,125.932,169.992,126.742z M170.332,132.92c-2.255,0-4.508-0.007-6.759,0
				c-1.026,0.008-1.408,0.395-1.42,1.42c-0.012,1.086-0.019,2.171,0.002,3.254c0.016,0.928,0.4,1.332,1.328,1.332
				c4.563,0.01,9.123,0.01,13.686,0c0.956-0.005,1.331-0.42,1.343-1.413c0.011-0.999,0.011-2.001,0.005-3
				c-0.005-1.234-0.355-1.585-1.597-1.593C174.727,132.917,172.526,132.92,170.332,132.92z"/>
			<path fill-rule="evenodd" clip-rule="evenodd" fill="#FFFFFF" d="M201.601,131.421c0-2.147,0-4.196,0-6.249
				c0-0.253-0.079-0.551,0.028-0.741c0.152-0.27,0.472-0.663,0.679-0.642c0.283,0.034,0.721,0.382,0.757,0.642
				c0.094,0.731,0.027,1.484,0.027,2.311c0.471,0,0.854,0,1.234,0c3.176,0,6.348,0,9.522,0c0.52,0,1.096,0.004,1.09,0.707
				c0,0.698-0.56,0.798-1.132,0.798c-3.228-0.005-6.458,0-9.686,0c-0.302,0-0.606,0-0.963,0c0,1.059,0,2.07,0,3.167
				c1.899,0,3.785,0,5.665,0c0.728,0,1.453-0.012,2.172,0.016c1.293,0.049,2.092,0.819,2.114,2.098
				c0.031,1.588,0.031,3.174,0.008,4.76c-0.023,1.29-0.812,2.127-2.08,2.132c-5.067,0.023-10.132,0.023-15.191,0.004
				c-1.239-0.006-2.045-0.807-2.074-2.051c-0.042-1.584-0.036-3.171-0.006-4.76c0.018-1.384,0.808-2.167,2.193-2.187
				C197.797,131.406,199.634,131.421,201.601,131.421z M203.522,132.92c-2.278,0-4.564-0.007-6.838,0
				c-1.034,0.008-1.415,0.393-1.426,1.418c-0.014,1.083-0.02,2.165,0,3.25c0.02,0.934,0.397,1.337,1.327,1.337
				c4.561,0.01,9.118,0.01,13.685,0c0.954-0.005,1.327-0.42,1.347-1.409c0.014-0.999,0.014-2,0-3.002
				c0-1.232-0.357-1.587-1.591-1.595C207.863,132.917,205.693,132.92,203.522,132.92z"/>
			<path fill-rule="evenodd" clip-rule="evenodd" fill="#FFFFFF" d="M163.38,141.847c-0.177,0.454-0.241,0.764-0.399,1.018
				c-0.82,1.315-1.651,2.624-2.51,3.917c-0.181,0.27-0.439,0.557-0.728,0.664c-0.363,0.137-0.892,0.264-1.173,0.1
				c-0.498-0.297-0.207-0.771,0.058-1.15c1.074-1.574,2.133-3.164,3.248-4.711c0.186-0.262,0.613-0.502,0.92-0.488
				C163.018,141.206,163.217,141.65,163.38,141.847z"/>
			<path fill-rule="evenodd" clip-rule="evenodd" fill="#FFFFFF" d="M196.463,141.838c-0.105,0.324-0.129,0.536-0.226,0.692
				c-0.959,1.517-1.9,3.054-2.938,4.523c-0.333,0.48-0.938,1.105-1.603,0.529c-0.72-0.627,0.048-1.119,0.379-1.615
				c0.896-1.332,1.803-2.654,2.697-3.982c0.148-0.205,0.243-0.481,0.435-0.596c0.231-0.134,0.588-0.242,0.802-0.152
				C196.23,141.329,196.348,141.67,196.463,141.838z"/>
			<path fill-rule="evenodd" clip-rule="evenodd" fill="#FFFFFF" d="M182.067,147.082c-0.146,0.166-0.303,0.518-0.562,0.609
				c-0.207,0.076-0.647-0.059-0.776-0.246c-1.184-1.773-2.326-3.566-3.444-5.379c-0.103-0.162,0.007-0.573,0.155-0.717
				c0.152-0.15,0.493-0.146,0.733-0.135c0.146,0.006,0.305,0.15,0.412,0.266c1.419,1.511,2.543,3.21,3.348,5.128
				C181.977,146.701,181.994,146.814,182.067,147.082z"/>
			<path fill-rule="evenodd" clip-rule="evenodd" fill="#FFFFFF" d="M215.174,147.074c-0.153,0.184-0.293,0.496-0.528,0.602
				c-0.187,0.086-0.52-0.025-0.737-0.146c-0.181-0.098-0.297-0.324-0.416-0.51c-0.957-1.488-1.905-2.98-2.854-4.477
				c-0.259-0.403-0.58-0.821-0.08-1.246c0.504-0.428,0.962-0.087,1.218,0.28c1.105,1.614,2.155,3.272,3.214,4.913
				C215.074,146.629,215.09,146.809,215.174,147.074z"/>
			<path fill-rule="evenodd" clip-rule="evenodd" fill="#FFFFFF" d="M174.76,146.73c-0.366,0.385-0.56,0.754-0.818,0.82
				c-0.22,0.049-0.624-0.207-0.762-0.436c-0.218-0.344-0.248-0.787-0.386-1.176c-0.396-1.096-0.85-2.172-1.181-3.281
				c-0.078-0.273,0.119-0.767,0.358-0.933c0.154-0.115,0.785,0.085,0.873,0.286C173.522,143.545,174.117,145.117,174.76,146.73z"/>
			<path fill-rule="evenodd" clip-rule="evenodd" fill="#FFFFFF" d="M207.663,146.912c-0.169,0.182-0.376,0.588-0.652,0.639
				c-0.228,0.045-0.683-0.275-0.785-0.535c-0.562-1.473-1.083-2.963-1.549-4.469c-0.065-0.232,0.259-0.584,0.393-0.88
				c0.344,0.167,0.87,0.246,0.992,0.513c0.528,1.186,0.949,2.417,1.385,3.641C207.548,146.102,207.567,146.416,207.663,146.912z"/>
			<path fill-rule="evenodd" clip-rule="evenodd" fill="#FFFFFF" d="M168.56,146.906c-0.162,0.168-0.423,0.65-0.668,0.645
				c-0.299-0.006-0.755-0.383-0.842-0.68c-0.395-1.408-0.721-2.836-0.988-4.275c-0.053-0.279,0.271-0.63,0.427-0.944
				c0.29,0.152,0.76,0.234,0.848,0.461c0.388,1.033,0.68,2.093,0.97,3.154C168.427,145.717,168.45,146.197,168.56,146.906z"/>
			<path fill-rule="evenodd" clip-rule="evenodd" fill="#FFFFFF" d="M201.812,146.707c-0.304,0.344-0.598,0.875-0.781,0.842
				c-0.336-0.072-0.798-0.418-0.887-0.738c-0.389-1.348-0.696-2.729-0.948-4.112c-0.058-0.313,0.239-0.692,0.373-1.035
				c0.309,0.159,0.815,0.26,0.9,0.498C200.96,143.621,201.353,145.109,201.812,146.707z"/>
		</g>
	</g>
</g>
</svg>
